<svg id="Layer_1" data-name="Layer 1" xmlns="http://www.w3.org/2000/svg" xmlns:xlink="http://www.w3.org/1999/xlink" viewBox="0 0 679.8477 317.7888"><defs><linearGradient id="linear-gradient" x1="240.8726" y1="123.2031" x2="240.8726" gradientUnits="userSpaceOnUse"><stop offset="0" stop-color="#6452a1"/><stop offset="0.4129" stop-color="#5d5373"/><stop offset="0.4891" stop-color="#4d436a"/><stop offset="0.6176" stop-color="#382d5e"/><stop offset="0.7006" stop-color="#302559"/><stop offset="0.7513" stop-color="#291f4e"/><stop offset="0.833" stop-color="#221a43"/><stop offset="0.9262" stop-color="#201840"/><stop offset="0.928" stop-color="#1f173c"/><stop offset="0.9409" stop-color="#171328"/><stop offset="0.9554" stop-color="#121019"/><stop offset="0.9726" stop-color="#0f0f11"/><stop offset="1" stop-color="#0e0e0e"/></linearGradient></defs><text transform="translate(376.4014 299.4451)" style="font-size:44.63154983520508px;fill:#59241e;font-family:AvenirNext-Regular, Avenir Next;letter-spacing:0.12598816074642735em">e<tspan x="31.1523" y="0" style="letter-spacing:0.1320053097921494em">xpeditions</tspan></text><text transform="translate(0.8911 231.9246)" style="font-size:127.5125961303711px;fill:#336173;font-family:Storybook">Moonlight</text><path d="M364.0757,123.2031H117.67a123.2031,123.2031,0,0,1,246.4062,0Z" style="fill:url(#linear-gradient)"/><polygon points="199.555 79.877 203.273 74.73 206.057 71.209 210.12 65.791 213.1 60.549 220.955 50.08 227.998 38.432 238.766 31.66 252.687 49.538 261.054 60.549 267.187 70.667 272.678 78.141 278.382 88.545 290.572 99.922 294.365 110.758 299.288 115.363 301.678 119.155 304.839 122.406 308.09 124.186 234.139 124.186 213.952 124.186 197.283 124.186 185.507 124.186 189.804 114.55 191.7 107.236 193.325 100.735 193.325 90.712 199.555 79.877" style="fill:#fff"/><polygon points="127.395 124.186 131.982 116.538 141.77 114.09 150.64 99.405 156.168 95.427 160.733 86.555 165.933 85.331 172.356 75.235 189.178 60.549 194.378 64.526 198.966 69.422 200.801 77.07 210.895 89.002 213.341 100.322 218.541 112.866 221.6 118.679 224.658 124.186 127.395 124.186" style="fill:#fff"/><polygon points="260.098 105.746 261.994 94.911 264.703 86.514 267.187 81.096 269.985 76.356 271.881 71.886 275.809 63.895 289.489 53.872 298.292 63.895 305.606 70.396 313.191 74.053 320.369 84.076 324.974 90.848 329.173 96.807 332.288 102.09 336.305 104.759 338.14 108.277 346.398 115.467 349.916 117.608 354.351 124.186 251.347 124.186 254.138 119.155 256.847 116.446 258.31 114.008 260.098 105.746" style="fill:#fff"/></svg>