<svg id="Layer_1" data-name="Layer 1" xmlns="http://www.w3.org/2000/svg" viewBox="0 0 900 900"><path d="M371.2754,364.9475c0-51.3639,21.9683-93.0031,49.0674-93.0031V482.806C408.6193,433.08,371.2754,416.3114,371.2754,364.9475Z" style="fill:#009475"/><path d="M469.41,364.9475c0-51.3639-21.9684-93.0031-49.0674-93.0031V482.806C432.0662,433.08,469.41,416.3114,469.41,364.9475Z" style="fill:#009475"/><path d="M476.0417,385.587c24.39-38.01,58.3383-59.0666,75.8248-47.03L451.7388,494.6C467.7865,452.5938,451.6515,423.5975,476.0417,385.587Z" style="fill:#016b5c"/><path d="M539.3662,429.1765c24.39-38.01,29.9868-78.5824,12.5-90.6192L451.7388,494.6C482.9164,463.0084,514.976,467.1871,539.3662,429.1765Z" style="fill:#016b5c"/><path d="M482.4868,479.25c30.71-14.5292,61.565-15.9171,68.9162-3.1L425.3313,535.7959C451.8819,516.1851,451.777,493.7793,482.4868,479.25Z" style="fill:#016b5c"/><path d="M509.1083,525.665c30.71-14.5291,49.646-36.6979,42.2947-49.5149L425.3313,535.7959C458.2425,527.2748,478.3984,540.1942,509.1083,525.665Z" style="fill:#016b5c"/><path d="M476.0417,385.587c24.39-38.01,58.3383-59.0666,75.8248-47.03L451.7388,494.6C467.7865,452.5938,451.6515,423.5975,476.0417,385.587Z" style="fill:#016b5c"/><path d="M482.4868,479.25c30.71-14.5292,61.565-15.9171,68.9162-3.1L425.3313,535.7959C451.8819,516.1851,451.777,493.7793,482.4868,479.25Z" style="fill:#016b5c"/><path d="M509.1083,525.665c30.71-14.5291,49.646-36.6979,42.2947-49.5149L425.3313,535.7959C458.2425,527.2748,478.3984,540.1942,509.1083,525.665Z" style="fill:#016b5c"/><path d="M361.0084,383.8931c-24.39-38.01-58.3383-59.0666-75.8248-47.03L385.3113,492.906C369.2636,450.9,385.3986,421.9036,361.0084,383.8931Z" style="fill:#016b5c"/><path d="M297.6839,427.4826c-24.39-38.01-29.9868-78.5824-12.5-90.6192L385.3113,492.906C354.1337,461.3145,322.074,465.4932,297.6839,427.4826Z" style="fill:#016b5c"/><path d="M355.03,479.25c-30.71-14.5292-61.5649-15.9171-68.9162-3.1l126.0718,59.6458C385.6344,516.1851,385.7394,493.7793,355.03,479.25Z" style="fill:#016b5c"/><path d="M328.4081,525.665c-30.71-14.5291-49.646-36.6979-42.2948-49.5149l126.0718,59.6458C379.2739,527.2748,359.118,540.1942,328.4081,525.665Z" style="fill:#016b5c"/><path d="M278.8135,555.5322a35.0286,35.0286,0,0,1,6.36-.5508c3.5108,0,5.8242.668,7.4209,2.1075a6.41,6.41,0,0,1,2.0078,4.8681,6.7622,6.7622,0,0,1-4.8261,6.5254v.0928c1.9521.6846,3.1328,2.5312,3.7548,5.1855a42.9523,42.9523,0,0,0,1.97,7.0284H292.07a33.9762,33.9762,0,0,1-1.6826-6.1309c-.76-3.5068-2.1445-4.8672-5.14-4.9668h-3.13v11.0977h-3.3047Zm3.3047,11.6563h3.3789c3.54,0,5.7822-1.9268,5.7822-4.8623,0-3.3262-2.3994-4.77-5.8877-4.7764a14.3714,14.3714,0,0,0-3.2734.292Z" style="fill:#bcbec0"/><path d="M303.2734,557.22a2.0142,2.0142,0,0,1-2.1259,2.0772A1.9939,1.9939,0,0,1,299.13,557.22a2.03,2.03,0,0,1,2.0781-2.0791A2.0019,2.0019,0,0,1,303.2734,557.22Zm-3.7343,23.5694V562.415h3.3252v18.3741Z" style="fill:#bcbec0"/><path d="M308.4238,568.4c0-2.3428-.0625-4.251-.1513-5.9854h2.9853l.1846,3.1309h.0762a7.1749,7.1749,0,0,1,6.5224-3.5488c4.4483,0,7.8,3.7461,7.8,9.3232,0,6.6231-4.0508,9.8867-8.3554,9.8867a6.4154,6.4154,0,0,1-5.6631-2.8945h-.0762v9.999h-3.3223Zm3.3223,4.91a6.2644,6.2644,0,0,0,.1445,1.3594,5.1372,5.1372,0,0,0,4.9961,3.919c3.543,0,5.5879-2.9063,5.5879-7.1182,0-3.666-1.9209-6.8193-5.459-6.8193a5.3076,5.3076,0,0,0-5.0547,4.124,5.7794,5.7794,0,0,0-.2148,1.3574Z" style="fill:#bcbec0"/><path d="M330.0459,568.4c0-2.3428-.0625-4.251-.1514-5.9854H332.88l.1846,3.1309h.0761a7.175,7.175,0,0,1,6.5225-3.5488c4.4482,0,7.8,3.7461,7.8,9.3232,0,6.6231-4.0508,9.8867-8.3555,9.8867a6.4157,6.4157,0,0,1-5.6631-2.8945h-.0761v9.999h-3.3223Zm3.3223,4.91a6.2644,6.2644,0,0,0,.1445,1.3594,5.1372,5.1372,0,0,0,4.9961,3.919c3.543,0,5.5879-2.9063,5.5879-7.1182,0-3.666-1.9209-6.8193-5.459-6.8193a5.3075,5.3075,0,0,0-5.0547,4.124,5.7742,5.7742,0,0,0-.2148,1.3574Z" style="fill:#bcbec0"/><path d="M351.6738,553.8135h3.3252v26.9756h-3.3252Z" style="fill:#bcbec0"/><path d="M362.5117,572.2051c.0654,4.5166,2.9326,6.3789,6.2881,6.3789a12.377,12.377,0,0,0,5.09-.94l.585,2.373a14.8129,14.8129,0,0,1-6.1308,1.1719c-5.6456,0-9.0411-3.7617-9.0411-9.2744,0-5.5684,3.28-9.917,8.6465-9.917,5.9942,0,7.5615,5.2588,7.5615,8.6416a8.1522,8.1522,0,0,1-.1142,1.5664Zm9.78-2.4033c.0332-2.1065-.8623-5.41-4.6094-5.41-3.4111,0-4.8633,3.084-5.13,5.41Z" style="fill:#bcbec0"/><path d="M395.5381,553.8135V576.05c0,1.6338.0635,3.4717.1523,4.7393H392.72l-.17-3.1778h-.0889a6.73,6.73,0,0,1-6.2334,3.5957c-4.4521,0-7.8867-3.7646-7.8867-9.3359-.0283-6.1416,3.7832-9.874,8.2569-9.874a6.1355,6.1355,0,0,1,5.5429,2.7871h.0762V553.8135Zm-3.3213,16.0771a6.891,6.891,0,0,0-.1406-1.4277,4.9421,4.9421,0,0,0-4.8389-3.8457c-3.4609,0-5.5293,3.0351-5.5293,7.0732,0,3.7315,1.8574,6.83,5.4609,6.83a5.0455,5.0455,0,0,0,4.8838-4.0117,5.4872,5.4872,0,0,0,.1641-1.4336Z" style="fill:#bcbec0"/><path d="M409.2646,555.1807h3.3243V577.998h10.9492v2.7911H409.2646Z" style="fill:#bcbec0"/><path d="M428.44,572.2051c.0655,4.5166,2.9326,6.3789,6.2881,6.3789a12.3779,12.3779,0,0,0,5.09-.94l.5849,2.373a14.8129,14.8129,0,0,1-6.1308,1.1719c-5.6455,0-9.0411-3.7617-9.0411-9.2744,0-5.5684,3.28-9.917,8.6465-9.917,5.9942,0,7.5616,5.2588,7.5616,8.6416a8.15,8.15,0,0,1-.1143,1.5664Zm9.78-2.4033c.0332-2.1065-.8623-5.41-4.6094-5.41-3.4111,0-4.8633,3.084-5.13,5.41Z" style="fill:#bcbec0"/><path d="M455.7969,580.7891l-.2949-2.32h-.1a6.8378,6.8378,0,0,1-5.622,2.7382,5.2417,5.2417,0,0,1-5.6123-5.2724c0-4.4512,3.9443-6.8955,11.0429-6.8448v-.3906c0-1.4931-.42-4.2588-4.1836-4.2392a8.9445,8.9445,0,0,0-4.7871,1.37l-.7588-2.2227a11.5623,11.5623,0,0,1,6.0655-1.61c5.6162,0,6.9863,3.84,6.9863,7.52v6.874a28.7319,28.7319,0,0,0,.2773,4.3975Zm-.52-9.3829c-3.6162-.0771-7.7559.5733-7.7559,4.126a2.9411,2.9411,0,0,0,3.1191,3.1992,4.6014,4.6014,0,0,0,4.4786-3.0761,3.4958,3.4958,0,0,0,.1582-1.0528Z" style="fill:#bcbec0"/><path d="M464.249,580.7891V564.9463h-2.5654V562.415h2.5654v-.8867c0-2.5908.5957-4.9355,2.1367-6.4375a6.4038,6.4038,0,0,1,4.4668-1.6953,7.2213,7.2213,0,0,1,2.8545.5381l-.4414,2.5664a5.1087,5.1087,0,0,0-2.1465-.418c-2.8222,0-3.5625,2.502-3.5625,5.3379v.9951h4.44v2.5313h-4.4219v15.8428Z" style="fill:#bcbec0"/><path d="M483.1729,555.1807h13.7919v2.7548H486.4971v8.5264h9.6718V569.2h-9.6718v11.5889h-3.3242Z" style="fill:#bcbec0"/><path d="M510.06,580.7891l-.295-2.32h-.1a6.8378,6.8378,0,0,1-5.622,2.7382,5.2417,5.2417,0,0,1-5.6123-5.2724c0-4.4512,3.9443-6.8955,11.0429-6.8448v-.3906c0-1.4931-.42-4.2588-4.1836-4.2392a8.9445,8.9445,0,0,0-4.7871,1.37l-.7588-2.2227a11.5623,11.5623,0,0,1,6.0655-1.61c5.6162,0,6.9863,3.84,6.9863,7.52v6.874a28.7319,28.7319,0,0,0,.2773,4.3975Zm-.52-9.3829c-3.6162-.0771-7.7559.5733-7.7559,4.126a2.9411,2.9411,0,0,0,3.1191,3.1992,4.6014,4.6014,0,0,0,4.4786-3.0761,3.4958,3.4958,0,0,0,.1582-1.0528Z" style="fill:#bcbec0"/><path d="M518.1807,568.1377c0-2.17-.0537-4.0195-.1514-5.7227h2.9287l.127,3.6045h.1191a5.5777,5.5777,0,0,1,5.1172-4.0224,3.7988,3.7988,0,0,1,.9287.0937v3.1426a5.3326,5.3326,0,0,0-1.1367-.0967c-2.3545,0-4.0186,1.7754-4.4727,4.2754a8.89,8.89,0,0,0-.1347,1.56v9.8174h-3.3252Z" style="fill:#bcbec0"/><path d="M530.7646,567.377c0-1.917-.0625-3.4395-.1513-4.962h2.9033l.1758,2.958h.0937a6.3432,6.3432,0,0,1,5.8008-3.3759,5.4041,5.4041,0,0,1,5.1787,3.6836h.0762a7.4356,7.4356,0,0,1,2.0732-2.3926,6.258,6.258,0,0,1,4.043-1.291c2.4531,0,6.0654,1.581,6.0654,7.9717v10.82h-3.2617V570.3975c0-3.56-1.3115-5.667-3.9873-5.667a4.3594,4.3594,0,0,0-3.9756,3.0078,5.5149,5.5149,0,0,0-.2734,1.6758v11.375h-3.2617V569.7617c0-2.9258-1.294-5.0312-3.8184-5.0312a4.6225,4.6225,0,0,0-4.166,3.3359,5.3188,5.3188,0,0,0-.2529,1.6455v11.0772h-3.2618Z" style="fill:#bcbec0"/><path d="M561.9844,577.3867a9.1064,9.1064,0,0,0,4.4287,1.31c2.44,0,3.57-1.2,3.57-2.7373,0-1.6065-.9717-2.4483-3.4141-3.3643-3.32-1.2011-4.8916-3.0088-4.8828-5.21,0-2.96,2.4043-5.3877,6.3565-5.3877a8.8953,8.8953,0,0,1,4.5009,1.13l-.831,2.43a7.2257,7.2257,0,0,0-3.7695-1.082c-1.9717,0-3.044,1.1367-3.044,2.5225,0,1.52,1.0811,2.1992,3.4893,3.1338,3.167,1.18,4.8125,2.7763,4.8213,5.52,0,3.2568-2.5313,5.5371-6.8731,5.5371a10.4841,10.4841,0,0,1-5.164-1.2813Z" style="fill:#bcbec0"/></svg>